<?xml version="1.0" encoding="UTF-8" standalone="no"?>
<!-- Created with Inkscape (http://www.inkscape.org/) -->

<svg
   width="210mm"
   height="210mm"
   viewBox="0 0 210 210"
   version="1.1"
   id="svg5"
   inkscape:version="1.2.1 (9c6d41e410, 2022-07-14)"
   sodipodi:docname="favicon.svg"
   xmlns:inkscape="http://www.inkscape.org/namespaces/inkscape"
   xmlns:sodipodi="http://sodipodi.sourceforge.net/DTD/sodipodi-0.dtd"
   xmlns="http://www.w3.org/2000/svg"
   xmlns:svg="http://www.w3.org/2000/svg">
  <sodipodi:namedview
     id="namedview7"
     pagecolor="#ffffff"
     bordercolor="#000000"
     borderopacity="0.25"
     inkscape:showpageshadow="2"
     inkscape:pageopacity="0.0"
     inkscape:pagecheckerboard="true"
     inkscape:deskcolor="#d1d1d1"
     inkscape:document-units="mm"
     showgrid="false"
     inkscape:zoom="0.73851712"
     inkscape:cx="87.337177"
     inkscape:cy="524.02306"
     inkscape:window-width="1920"
     inkscape:window-height="1009"
     inkscape:window-x="-8"
     inkscape:window-y="-8"
     inkscape:window-maximized="1"
     inkscape:current-layer="layer1" />
  <defs
     id="defs2" />
  <g
     inkscape:groupmode="layer"
     id="layer2"
     inkscape:label="Layer 2">
    <rect
       style="fill:#000000;stroke:#000000;stroke-width:2.765"
       id="rect809"
       width="210"
       height="210"
       x="0"
       y="0"
       rx="0.65607518"
       inkscape:label="rect809" />
  </g>
  <g
     inkscape:label="Layer 1"
     inkscape:groupmode="layer"
     id="layer1">
    <circle
       style="fill:#ff0000;stroke:#000000;stroke-width:1.93763"
       id="path345"
       cx="70.518951"
       cy="91.182198"
       r="28.997494" />
    <circle
       style="fill:#ff0000;stroke:#000000;stroke-width:1.93763"
       id="path345-7"
       cx="138.29118"
       cy="89.010323"
       r="28.997494" />
    <path
       style="fill:#f9f9f9;stroke:#ffffff;stroke-width:4.15679;stroke-opacity:1"
       id="path2510"
       d="m 19.432658,158.22934 c 9.879452,8.2978 20.196204,15.16757 30.519167,21.87782 5.200088,3.308 10.385269,6.72098 15.777125,9.13195 5.559477,2.05775 11.141106,4.09057 16.7703,5.59959 2.228665,0.59744 4.467554,1.09075 6.701333,1.63609 2.657974,0.52701 5.312414,1.10263 7.973905,1.58101 4.577142,0.82276 13.053212,2.12922 17.664402,2.65951 5.83752,0.67134 11.72984,1.18292 17.58593,0.8873 3.07614,-0.15532 6.14149,-0.66499 9.21223,-0.99747 10.29379,-1.4997 20.49994,-4.75988 30.20899,-10.56251 5.14733,-3.0763 6.03406,-4.08248 10.76146,-7.99696 7.44631,-6.886 12.83595,-16.39947 17.90738,-27.32 2.28179,-5.17457 3.93788,-10.91973 5.07852,-16.98432 0.60817,-3.23355 0.75813,-4.71664 1.18363,-7.97288 0.36654,-3.23377 0.67726,-6.48253 0.98404,-9.73209 2.14044,-22.710075 -17.74535,-27.598979 -19.88578,-4.88887 v 0 c -0.25399,2.69969 -0.51459,5.39769 -0.80229,8.08871 -0.51331,4.24695 -1.14169,8.47311 -2.69192,12.08789 -3.11586,6.83045 -6.53768,13.39407 -11.05855,17.90281 -1.16105,0.99627 -2.29481,2.08039 -3.48316,2.98884 -9.2718,7.08757 -19.46431,10.33981 -29.60826,11.98192 -2.57259,0.30611 -5.13983,0.77156 -7.71779,0.91837 -5.33234,0.30366 -10.65083,-0.16255 -15.96664,-0.77032 -4.39611,-0.50279 -12.55029,-1.75533 -16.930623,-2.5366 -2.479014,-0.44215 -4.951572,-0.97382 -7.427363,-1.46073 -1.99988,-0.48177 -4.004553,-0.9142 -5.999633,-1.44534 -5.08097,-1.3526 -10.11402,-3.20423 -15.140552,-4.99421 -4.655783,-2.03283 -9.089456,-5.17671 -13.589639,-7.94133 -9.345603,-6.0686 -18.661098,-12.32497 -27.677211,-19.59546 -12.196418,-11.81881 -22.5454196,16.03848 -10.349001,27.85728 z" />
  </g>
  <g
     inkscape:groupmode="layer"
     id="layer3"
     inkscape:label="Layer 3">
    <circle
       style="fill:#ffffff;stroke:#000000;stroke-width:1.8268"
       id="path345-5"
       cx="173.91682"
       cy="32.963665"
       r="27.338825" />
    <path
       style="fill:#f9f9f9;stroke:#ffffff;stroke-width:3.05682;stroke-opacity:1"
       d="m 152.69564,20.316751 -29.21,-21.22179977"
       id="path2332" />
    <path
       style="fill:#f9f9f9;stroke:#ffffff;stroke-width:2.765;stroke-opacity:1"
       d="M 124.83479,-1.0207688 97.169049,61.215891"
       id="path2336" />
  </g>
</svg>
